<?xml version="1.0" standalone="no"?>
<!DOCTYPE svg PUBLIC "-//W3C//DTD SVG 20010904//EN"
 "http://www.w3.org/TR/2001/REC-SVG-20010904/DTD/svg10.dtd">
<svg version="1.0" xmlns="http://www.w3.org/2000/svg"
 width="1000.000000pt" height="1000.000000pt" viewBox="0 0 1000.000000 1000.000000"
 preserveAspectRatio="xMidYMid meet">
<metadata>
Created by potrace 1.14, written by Peter Selinger 2001-2017
</metadata>
<g transform="translate(0.000000,1000.000000) scale(0.100000,-0.100000)"
fill="#000000" stroke="none">
<path d="M4825 9813 c-687 -32 -1300 -189 -1910 -488 -1329 -652 -2282 -1890
-2575 -3345 -104 -519 -124 -1040 -59 -1553 173 -1365 932 -2607 2054 -3363
205 -138 347 -221 565 -329 1332 -664 2879 -670 4208 -16 661 326 1199 756
1645 1314 422 529 742 1174 896 1807 177 730 195 1416 55 2120 -333 1681
-1529 3048 -3152 3604 -540 185 -1169 276 -1727 249z m695 -247 c557 -66 1040
-207 1510 -440 164 -81 202 -103 397 -222 288 -177 625 -451 871 -708 745
-781 1178 -1747 1263 -2819 15 -192 6 -685 -15 -867 -34 -288 -112 -653 -193
-905 -81 -254 -252 -641 -368 -835 -162 -272 -248 -397 -405 -594 -689 -863
-1673 -1453 -2743 -1645 -312 -56 -430 -66 -812 -66 -365 1 -497 10 -765 56
-1107 189 -2086 767 -2795 1652 -575 716 -912 1572 -986 2500 -15 192 -6 685
15 867 121 1020 543 1916 1248 2656 246 257 583 531 871 708 195 119 233 141
397 222 510 253 1054 402 1655 454 155 13 698 4 855 -14z"/>
<path d="M4517 8733 c-8 -13 -77 -214 -77 -225 0 -4 15 -8 34 -8 32 0 35 -3
40 -37 7 -42 436 -3424 436 -3435 0 -5 20 -8 45 -8 l45 0 0 1410 0 1410 40 0
40 0 -57 115 c-32 63 -60 115 -63 115 -3 0 -31 -52 -63 -115 l-57 -115 40 0
40 0 -1 -1107 c-1 -610 -3 -1099 -5 -1088 -5 23 -364 2859 -364 2869 0 3 16 6
35 6 19 0 35 4 35 9 0 8 -121 194 -135 209 -2 2 -5 -1 -8 -5z"/>
</g>
</svg>
